<?xml version="1.0" encoding="utf-8"?>
<svg width="30px" height="30px" viewBox="0 0 30 30" version="1.1" xmlns:xlink="http://www.w3.org/1999/xlink" xmlns="http://www.w3.org/2000/svg">
  <desc>Created with Lunacy</desc>
  <path d="M23.001 0L6.999 0Q6.82718 0 6.65557 0.0084306Q6.48397 0.0168612 6.31298 0.0337021Q6.14199 0.050543 5.97203 0.0757536Q5.80208 0.100964 5.63356 0.134484Q5.46505 0.168003 5.29838 0.209751Q5.13171 0.251499 4.9673 0.301375Q4.80288 0.35125 4.64111 0.409133Q4.47933 0.467016 4.3206 0.532767Q4.16186 0.598518 4.00654 0.671979Q3.85122 0.74544 3.69969 0.826433Q3.54817 0.907426 3.40079 0.995757Q3.25342 1.08409 3.11056 1.17954Q2.9677 1.275 2.8297 1.37735Q2.6917 1.4797 2.55888 1.5887Q2.42607 1.6977 2.29876 1.81308Q2.17145 1.92847 2.04996 2.04996Q1.92847 2.17145 1.81308 2.29876Q1.6977 2.42607 1.5887 2.55888Q1.4797 2.6917 1.37735 2.8297Q1.275 2.9677 1.17954 3.11056Q1.08409 3.25342 0.995757 3.40079Q0.907426 3.54817 0.826433 3.69969Q0.74544 3.85122 0.671979 4.00654Q0.598518 4.16186 0.532767 4.3206Q0.467016 4.47933 0.409133 4.64111Q0.35125 4.80288 0.301375 4.9673Q0.251499 5.13171 0.209751 5.29838Q0.168003 5.46505 0.134484 5.63356Q0.100964 5.80208 0.0757536 5.97203Q0.050543 6.14199 0.0337021 6.31298Q0.0168612 6.48397 0.0084306 6.65558Q0 6.82718 0 6.999L0 23.001Q0 23.1728 0.0084306 23.3444Q0.0168612 23.516 0.0337021 23.687Q0.050543 23.858 0.0757536 24.028Q0.100964 24.1979 0.134484 24.3664Q0.168003 24.535 0.209751 24.7016Q0.251499 24.8683 0.301375 25.0327Q0.35125 25.1971 0.409133 25.3589Q0.467016 25.5207 0.532767 25.6794Q0.598518 25.8381 0.671979 25.9935Q0.74544 26.1488 0.826433 26.3003Q0.907426 26.4518 0.995757 26.5992Q1.08409 26.7466 1.17954 26.8894Q1.275 27.0323 1.37735 27.1703Q1.4797 27.3083 1.5887 27.4411Q1.6977 27.5739 1.81308 27.7012Q1.92847 27.8285 2.04996 27.95Q2.17145 28.0715 2.29876 28.1869Q2.42607 28.3023 2.55888 28.4113Q2.6917 28.5203 2.8297 28.6227Q2.9677 28.725 3.11056 28.8205Q3.25342 28.9159 3.40079 29.0042Q3.54817 29.0926 3.69969 29.1736Q3.85122 29.2546 4.00654 29.328Q4.16186 29.4015 4.3206 29.4672Q4.47933 29.533 4.64111 29.5909Q4.80288 29.6487 4.9673 29.6986Q5.13171 29.7485 5.29838 29.7902Q5.46505 29.832 5.63356 29.8655Q5.80208 29.899 5.97203 29.9242Q6.14199 29.9495 6.31298 29.9663Q6.48397 29.9831 6.65558 29.9916Q6.82718 30 6.999 30L23.001 30Q23.1728 30 23.3444 29.9916Q23.516 29.9831 23.687 29.9663Q23.858 29.9495 24.028 29.9242Q24.1979 29.899 24.3664 29.8655Q24.535 29.832 24.7016 29.7902Q24.8683 29.7485 25.0327 29.6986Q25.1971 29.6488 25.3589 29.5909Q25.5207 29.533 25.6794 29.4672Q25.8381 29.4015 25.9935 29.328Q26.1488 29.2546 26.3003 29.1736Q26.4518 29.0926 26.5992 29.0042Q26.7466 28.9159 26.8894 28.8205Q27.0323 28.725 27.1703 28.6227Q27.3083 28.5203 27.4411 28.4113Q27.5739 28.3023 27.7012 28.1869Q27.8285 28.0715 27.95 27.95Q28.0715 27.8285 28.1869 27.7012Q28.3023 27.5739 28.4113 27.4411Q28.5203 27.3083 28.6227 27.1703Q28.725 27.0323 28.8205 26.8894Q28.9159 26.7466 29.0042 26.5992Q29.0926 26.4518 29.1736 26.3003Q29.2546 26.1488 29.328 25.9935Q29.4015 25.8381 29.4672 25.6794Q29.533 25.5207 29.5909 25.3589Q29.6487 25.1971 29.6986 25.0327Q29.7485 24.8683 29.7902 24.7016Q29.832 24.535 29.8655 24.3664Q29.899 24.1979 29.9242 24.028Q29.9495 23.858 29.9663 23.687Q29.9831 23.516 29.9916 23.3444Q30 23.1728 30 23.001L30 6.999Q30 6.82718 29.9916 6.65557Q29.9831 6.48397 29.9663 6.31298Q29.9495 6.14199 29.9242 5.97203Q29.899 5.80208 29.8655 5.63356Q29.832 5.46505 29.7902 5.29838Q29.7485 5.13171 29.6986 4.9673Q29.6488 4.80288 29.5909 4.64111Q29.533 4.47933 29.4672 4.3206Q29.4015 4.16186 29.328 4.00654Q29.2546 3.85122 29.1736 3.69969Q29.0926 3.54817 29.0042 3.40079Q28.9159 3.25342 28.8205 3.11056Q28.725 2.9677 28.6227 2.8297Q28.5203 2.6917 28.4113 2.55888Q28.3023 2.42607 28.1869 2.29876Q28.0715 2.17145 27.95 2.04996Q27.8285 1.92847 27.7012 1.81308Q27.5739 1.6977 27.4411 1.5887Q27.3083 1.4797 27.1703 1.37735Q27.0323 1.275 26.8894 1.17954Q26.7466 1.08409 26.5992 0.995757Q26.4518 0.907426 26.3003 0.826433Q26.1488 0.74544 25.9935 0.671979Q25.8381 0.598518 25.6794 0.532767Q25.5207 0.467016 25.3589 0.409133Q25.1971 0.35125 25.0327 0.301375Q24.8683 0.251499 24.7016 0.209751Q24.535 0.168003 24.3664 0.134484Q24.1979 0.100964 24.028 0.0757536Q23.858 0.050543 23.687 0.0337021Q23.516 0.0168612 23.3444 0.0084306Q23.1728 0 23.001 0ZM10 6L20 6C21.1 6 22 6.9 22 8L22 24L15 21L8 24L8.01 8C8.01 6.9 8.9 6 10 6Z" id="Rectangle-Difference" fill="#FFFFFF" fill-rule="evenodd" stroke="none" />
</svg>